<svg width="18" height="21" viewBox="0 0 18 21" fill="none" xmlns="http://www.w3.org/2000/svg">
<g clip-path="url(#clip0)">
<path d="M13.95 12.25H13.239L12.987 12.0138C13.869 11.0163 14.4 9.72125 14.4 8.3125C14.4 5.17125 11.781 2.625 8.55 2.625C5.319 2.625 2.7 5.17125 2.7 8.3125C2.7 11.4538 5.319 14 8.55 14C9.999 14 11.331 13.4838 12.357 12.6263L12.6 12.8713V13.5625L17.1 17.9288L18.441 16.625L13.95 12.25V12.25ZM8.55 12.25C6.309 12.25 4.5 10.4913 4.5 8.3125C4.5 6.13375 6.309 4.375 8.55 4.375C10.791 4.375 12.6 6.13375 12.6 8.3125C12.6 10.4913 10.791 12.25 8.55 12.25Z" fill="white"/>
</g>
<defs>
<clipPath id="clip0">
<rect width="18" height="21" fill="white"/>
</clipPath>
</defs>
</svg>
